<svg xmlns="http://www.w3.org/2000/svg" width="1020.886" height="645.206" viewBox="0 0 1020.886 645.206">
    <defs>
        <style>
            .cls-2{fill:#2b5ac4}.cls-3{fill:#fff}
        </style>
    </defs>
    <g id="Grupo_651" transform="translate(0.5 -278.21)">
        <path id="Intersección_1" fill="#00d784" stroke="rgba(0,0,0,0)" stroke-miterlimit="10" d="M826.923 4579.692c244.216-100.806 514.789-175.855 823.567-132.46 124.673 17.522 211.565 132.81 194.041 257.5-17.522 124.676-132.827 211.564-257.5 194.043-266.066-37.393-508.4 62.084-760.106 179.854z" transform="translate(-826.923 -4156)"/>
        <g id="Grupo_567" transform="translate(286.158 306.2)">
            <g id="archivo" transform="translate(226.006 0)">
                <path id="Trazado_356" d="M144.251 65.3l-27.845-27.8a3.073 3.073 0 0 0-2.173-.9h-6.659l7.915-7.915a3.074 3.074 0 0 0 0-4.349L92.059.9a3.076 3.076 0 0 0-4.35 0l-9.729 9.73-26 26a3.038 3.038 0 0 0-.42-.032h-20.7a3.072 3.072 0 0 0-2.176.9L.9 65.3a3.066 3.066 0 0 0-.9 2.179v86.9a3.075 3.075 0 0 0 3.075 3.075h139a3.075 3.075 0 0 0 3.075-3.075V123.23a3.075 3.075 0 1 0-6.15 0v28.07H6.15V70.555H139v28.072a3.075 3.075 0 1 0 6.15 0V67.479a3.073 3.073 0 0 0-.9-2.177zM82.329 14.98l7.556-7.556 19.081 19.082L84.973 50.5H59.65l-6.421-6.42zM10.5 64.4l21.639-21.654h13.973a3.073 3.073 0 0 0 .593 3.508l4.247 4.246h-9.7a3.075 3.075 0 0 0 0 6.151H103.9a3.075 3.075 0 1 0 0-6.151H93.67l7.754-7.753h11.536L134.646 64.4zm0 0" class="cls-2" transform="translate(0 0)"/>
                <path id="Trazado_357" d="M148 299.773a27.062 27.062 0 1 0 27.062-27.062A27.094 27.094 0 0 0 148 299.773zm47.974 0a20.912 20.912 0 1 1-20.912-20.912 20.936 20.936 0 0 1 20.912 20.912zm0 0" class="cls-2" transform="translate(-102.486 -188.846)"/>
                <path id="Trazado_358" d="M200.238 334.428a3.075 3.075 0 1 0-4.35 4.349l6.747 6.746a3.074 3.074 0 0 0 4.349 0l12.329-12.329a3.075 3.075 0 1 0-4.349-4.349L204.81 339zm0 0" class="cls-2" transform="translate(-135.024 -227.094)"/>
                <path id="Trazado_359" d="M455.079 350.707a3.078 3.078 0 1 0 2.174.9 3.094 3.094 0 0 0-2.174-.9zm0 0" class="cls-2" transform="translate(-313.001 -242.856)"/>
            </g>
            <path id="Trazado_360" d="M-124.551 38.573c.359.24.839.6 1.078.719h.12a.117.117 0 0 1 .12.12 2.82 2.82 0 0 1 .959.24h.24a4.076 4.076 0 0 0 1.2.12 4.494 4.494 0 0 0 1.2-.12h.24a2.82 2.82 0 0 1 .959-.24c.12-.12.12-.12.24-.12a6.689 6.689 0 0 0 .959-.6l.24-.12c.24-.24.479-.359.719-.6a.921.921 0 0 0 .24-.359c.12-.24.479-.479.6-.719.12 0 .12 0 .12-.12a3.588 3.588 0 0 0 .479-.959l29.595-69.972a6.576 6.576 0 0 0-3.594-8.507 6.593 6.593 0 0 0-8.627 3.475l-23.364 55.475-23.372-55.474a6.46 6.46 0 0 0-8.507-3.475 6.381 6.381 0 0 0-3.594 8.507l29.355 69.972a4.2 4.2 0 0 1 .6.959.117.117 0 0 0 .12.12 3.177 3.177 0 0 0 .6.719c0 .24.12.24.12.359a5.072 5.072 0 0 1 .839.6zm74.051 1.558a26.494 26.494 0 0 0 20-9.106c5.392-5.272 8.387-12.7 8.387-21.088A29.936 29.936 0 0 0-30.5-11.031a26.494 26.494 0 0 0-20-9.106 27.983 27.983 0 0 0-20.608 9.106A30.914 30.914 0 0 0-79.38 9.937a29.9 29.9 0 0 0 8.267 21.088A27.983 27.983 0 0 0-50.5 40.131zM-62-2.523a17.421 17.421 0 0 1 11.5-4.554 16.927 16.927 0 0 1 11.019 4.553 18.018 18.018 0 0 1 4.672 12.461 18.41 18.41 0 0 1-4.673 12.7A15.69 15.69 0 0 1-50.5 27.071 16.216 16.216 0 0 1-62 22.638a19.376 19.376 0 0 1-4.313-12.7 18.948 18.948 0 0 1 4.306-12.462zm73.44-17.614h-3V-37.51a6.5 6.5 0 0 0-6.59-6.59 6.6 6.6 0 0 0-6.71 6.59v17.373h-3.469a6.5 6.5 0 0 0-6.59 6.59 6.571 6.571 0 0 0 6.59 6.59h3.475v33.429a13.346 13.346 0 0 0 13.3 13.3 6.5 6.5 0 0 0 6.59-6.59 6.6 6.6 0 0 0-6.59-6.71V-6.957h3a6.753 6.753 0 0 0 6.71-6.59 6.673 6.673 0 0 0-6.716-6.59zm69.972 6.47a6.418 6.418 0 0 0-6.35-6.47 6.509 6.509 0 0 0-6.23 5.272A27.312 27.312 0 0 0 52.9-20.137a27.592 27.592 0 0 0-20.369 8.986A30.235 30.235 0 0 0 24.38 9.937a30.665 30.665 0 0 0 8.147 21.088A27.833 27.833 0 0 0 52.9 39.771a27.211 27.211 0 0 0 15.936-5.152 6.522 6.522 0 0 0 6.23 5.152 6.392 6.392 0 0 0 6.35-6.35v-47.088zM64.039 22.278A15.487 15.487 0 0 1 52.9 26.951a15.091 15.091 0 0 1-11.143-4.673A17.97 17.97 0 0 1 37.2 9.937 17.545 17.545 0 0 1 41.754-2.4 14.447 14.447 0 0 1 52.9-7.317 14.811 14.811 0 0 1 64.039-2.4a17.619 17.619 0 0 1 4.673 12.337 18.054 18.054 0 0 1-4.673 12.341zm62.3 17.493a33.008 33.008 0 0 0 19.051-6.35 6.618 6.618 0 0 0 1.318-8.866 6.529 6.529 0 0 0-8.986-1.318 19.4 19.4 0 0 1-11.382 3.834c-9.705 0-17.733-7.908-17.733-17.134s8.028-17.253 17.733-17.253a19.117 19.117 0 0 1 11.382 3.834 6.382 6.382 0 0 0 8.986-1.2 6.586 6.586 0 0 0-1.318-8.866 31.576 31.576 0 0 0-19.051-6.59c-16.53.121-30.429 13.421-30.429 30.075 0 16.415 13.899 29.834 30.434 29.834zm43.972-59.788a6.4 6.4 0 0 0-6.47 6.59V33.3a6.443 6.443 0 0 0 6.47 6.47 6.369 6.369 0 0 0 6.47-6.47v-46.727a6.327 6.327 0 0 0-6.465-6.59zm6.47-17.613a6.369 6.369 0 0 0-6.47-6.47 6.443 6.443 0 0 0-6.47 6.47v2.516a6.546 6.546 0 0 0 6.47 6.59 6.469 6.469 0 0 0 6.47-6.59zm41.936 77.761a26.494 26.494 0 0 0 20.009-9.106c5.392-5.272 8.387-12.7 8.387-21.088a29.936 29.936 0 0 0-8.387-20.968 26.494 26.494 0 0 0-20.009-9.106 27.983 27.983 0 0 0-20.608 9.106 30.914 30.914 0 0 0-8.267 20.968 29.9 29.9 0 0 0 8.267 21.088 27.983 27.983 0 0 0 20.613 9.106zm-11.5-42.654a17.421 17.421 0 0 1 11.5-4.553 16.927 16.927 0 0 1 11.023 4.553 18.018 18.018 0 0 1 4.673 12.461 18.41 18.41 0 0 1-4.673 12.7 15.69 15.69 0 0 1-11.023 4.433 16.216 16.216 0 0 1-11.5-4.433 19.376 19.376 0 0 1-4.313-12.7 18.948 18.948 0 0 1 4.315-12.462zm80.4-17.613a23.917 23.917 0 0 0-12.7 3.714 6.48 6.48 0 0 0-5.871-3.714 6.315 6.315 0 0 0-6.35 6.35v47.207a6.315 6.315 0 0 0 6.35 6.35 6.553 6.553 0 0 0 6.35-5.152 2.369 2.369 0 0 0 .24-1.2V4.785a11.967 11.967 0 0 1 11.982-12.1 12.3 12.3 0 0 1 12.461 12.1v28.636a6.472 6.472 0 0 0 6.35 6.35 6.29 6.29 0 0 0 6.23-6.35V4.785a25.082 25.082 0 0 0-25.043-24.922zm68.773 59.907c8.507 0 15.576-2.516 21.447-7.908 2.756-2.516 1.558-6.111 0-7.788-1.558-1.917-6.47-2.277-8.986.359-3 2.277-8.147 3.355-12.461 3-4.194-.359-8.986-2.516-11.5-5.392a15.71 15.71 0 0 1-4.074-7.908h38.1c3.355 0 5.871-1.917 6.23-4.793a3.319 3.319 0 0 0 .12-1.078v-.6c-.958-16.175-13.3-27.8-28.876-27.8-16.415 0-29.115 13.659-29.235 29.954.12 16.295 12.82 29.834 29.235 29.954zm0-48.525c10.424.839 16.535 7.908 17.733 12.7h-33.908c.959-4.912 5.991-12.221 16.175-12.7zm41.1 40.258c4.793 3.834 11.982 8.147 21.327 8.267a27.26 27.26 0 0 0 15.576-4.793 17.285 17.285 0 0 0 7.548-13.9 15.518 15.518 0 0 0-2.276-7.908 18.617 18.617 0 0 0-8.51-7.07 43.127 43.127 0 0 0-11.143-3.475h-.12l-.12-.12c-4.074-.719-7.189-1.8-8.747-2.876a3.226 3.226 0 0 1-1.318-1.2 1.291 1.291 0 0 1-.24-.959c0-.6.359-1.677 1.917-2.756a12.2 12.2 0 0 1 7.189-2.157c3.834 0 7.189 1.917 11.023 4.433a6.341 6.341 0 0 0 8.866-1.677 6.619 6.619 0 0 0-1.917-8.866c-3.834-2.636-9.705-6.59-17.972-6.59a25.773 25.773 0 0 0-14.736 4.443c-3.954 3-7.069 7.668-7.069 13.18a14.524 14.524 0 0 0 2.032 7.545 20.022 20.022 0 0 0 8.267 6.949 45.992 45.992 0 0 0 10.433 3.115h.12c4.313.839 7.908 2.157 9.585 3.355.958.6 1.438 1.078 1.558 1.438a1.789 1.789 0 0 1 .359 1.2c0 .959-.479 2.157-2.157 3.594a15.988 15.988 0 0 1-8.148 2.277c-4.673.12-10.064-2.636-13.18-5.272a6.232 6.232 0 0 0-8.986.959 6.392 6.392 0 0 0 .836 8.86z" class="cls-3" transform="translate(156.836 218.354)"/>
            <path id="Trazado_361" d="M-80.846 38.383a15.839 15.839 0 0 0 10.3 3.435c14.557 0 32.63-15.374 37.537-24.7 1.39-2.535 1.063-6.052-.164-6.052-.327 0-.736.245-1.145.818-6.624 8.587-17.828 17.255-28.214 20.854-2.7.981-6.951 2.372-10.631 2.372a8.48 8.48 0 0 1-4.171-.9C-83.79 30.7-78.883 19-76.1 14.749a22.234 22.234 0 0 1 10.056-8.342 14.116 14.116 0 0 1 2.617-.9c.572-.082 1.063-.164 1.554-.245-.082 1.227.164 2.372-.736 3.762-1.39 2.126 1.636 5.561 4.089 5.561a2.218 2.218 0 0 0 1.963-1.063c1.963-2.944 1.963-7.278.572-10.468A7.129 7.129 0 0 0-63.1-1.525c-10.222 0-19.3 9.077-22.244 18.319-2.456 7.441-2.044 16.437 4.498 21.589zm43.834-3.68a11.625 11.625 0 0 0 10.141 6.052c6.869 0 12.676-5.888 16.029-11.367a20.965 20.965 0 0 0 5.07.572 26.761 26.761 0 0 0 21.1-11.04c1.717-2.29 1.881-6.052.818-6.052-.245 0-.572.245-.981.818C10.91 19.41 1.915 23.663-6.1 23.663a11.518 11.518 0 0 1-1.636-.082c2.617-5.97 4.661-13.085 3.6-19.709-.982-5.643-4.908-10.795-11.041-10.795-4.171.082-7.033 3.108-8.669 6.624a3.889 3.889 0 0 0-1.881-.572 1.8 1.8 0 0 0-.654.082C-39.3 2.564-42.9 24.562-37.012 34.7zm4.743-15.783c.981-4.171 2.944-9 6.461-11.694a22.324 22.324 0 0 0 3.516 13.9 20.278 20.278 0 0 0 4.58 4.907c-2.535 3.353-7.278 8.26-11.613 8.26a3.1 3.1 0 0 1-1.881-.491c-3.516-2.37-1.794-11.693-1.063-14.883zm16.683-17.828A4.716 4.716 0 0 1-12.724-.38c4.007 0 .9 14.23 0 16.683-.654 1.717-1.39 3.353-2.208 5.07C-20.9 17.2-20.9 5.671-15.586 1.092zM13.2 39.691c3.353-4.825 6.788-9.486 10.3-14.066 5.4-6.951 10.963-14.556 18-20.036.245-.164.981-.572 1.636-.9.082 3.435.245 6.869.409 10.386.327 8.1 3.189 17.255 12.921 17.255 9 0 15.047-8.014 18.727-15.211.818-2.208-.245-4.825-1.472-4.825-.491 0-.981.409-1.472 1.39-2.29 4.825-11.04 12.43-17.092 12.43a5.424 5.424 0 0 1-3.026-.818c-2.126-1.39-1.881-6.133-1.963-8.341-.168-3.924.16-7.931-.494-11.855-.818-4.826-3.762-7.852-7.524-7.852A9.147 9.147 0 0 0 37-.953c-6.953 4.989-12.514 12.676-17.748 19.382-.572.736-1.063 1.39-1.636 2.126 1.472-6.3 2.862-12.512 4.334-18.809.491-2.29-2.453-4.989-4.58-4.989a2 2 0 0 0-2.044 1.8c-2.78 12.185-5.56 24.288-8.341 36.473-.082.245-.082.491-.164.736-.491 2.208 2.208 4.989 4.416 4.989a2.313 2.313 0 0 0 1.963-1.064zM44.358 3.79c.082-.164.245.082.245 0-.003.082-.163.082-.245 0zm16.519-15.947c3.271-1.636 9.4-3.271 16.6-4.661a240.524 240.524 0 0 0-7.031 23.062c-2.044 7.933-5.07 18.891-1.554 26.742 2.208 4.989 5.234 6.951 8.587 6.951 9.65 0 22.08-16.274 25.024-22.735.981-2.29.409-4.989-.818-4.989-.491 0-.981.327-1.554 1.227C96.042 19.9 86.556 31.1 78.46 32.658a7.208 7.208 0 0 1-1.717.245c-1.717 0-2.453-.981-2.7-3.353-.327-4.661.572-9.65 1.472-14.23A193.914 193.914 0 0 1 85.82-18.29a251.1 251.1 0 0 1 34.593-3.11 41.958 41.958 0 0 1 8.423.654 6.415 6.415 0 0 0 1.145.164c2.944 0 .736-4.334-2.208-5.07-2.862-.736-7.605-1.063-13.494-1.063-7.442 0-16.6.572-25.515 1.472 1.8-4.007 3.68-8.014 5.643-11.858 1.145-2.29-1.963-5.643-4.253-5.643a1.909 1.909 0 0 0-1.8 1.145c-2.944 5.643-5.561 11.449-8.014 17.337-9.977 1.472-18.891 3.353-23.471 5.643-3.189 1.554.164 6.706 3.026 6.706a2.177 2.177 0 0 0 .982-.244zm40.972 13.412a115.437 115.437 0 0 0-5.643 15.375c-1.717 6.46-3.68 15.37 1.554 20.853A10.215 10.215 0 0 0 105.447 41c10.795 0 24.125-15.865 27.8-23.552 1.063-2.208.9-5.07-.164-5.07-.327 0-.654.245-1.145.9-5.152 7.033-14.066 15.865-22.244 19.3-1.308.491-4.58 1.717-6.624 1.717a2.459 2.459 0 0 1-1.472-.327c-1.308-1.063-.491-5.643-.327-6.951.9-7.2 3.6-14.638 6.624-21.181 1.069-2.373-2.039-5.726-4.329-5.726a1.8 1.8 0 0 0-1.717 1.145zm4.661-14.148c-.572 1.472-1.063 2.944-1.636 4.334a4.481 4.481 0 0 0 1.881 4.743 4.373 4.373 0 0 0 2.617.9 1.625 1.625 0 0 0 1.636-1.063c.491-1.472 1.063-2.944 1.554-4.416.654-1.717-.409-3.68-1.881-4.743a4.91 4.91 0 0 0-2.535-.818 1.625 1.625 0 0 0-1.636 1.063zm10.468 105.659a16.73 16.73 0 0 0 8.505 2.208c6.461 0 13-3.353 17.664-7.687 15.7-14.557 22.9-40.317 26.824-61.007a167.418 167.418 0 0 1 18.729-7.933c3.108-1.063 4.661-5.479 2.535-5.479-2.372 0-17.174 6.215-20.2 7.524a51.066 51.066 0 0 0 .572-10.55c-.164-2.617-.981-5.4-3.516-6.624a3.614 3.614 0 0 0-1.8-.409c-2.372 0-4.5 2.126-6.133 3.68-.736.654-1.39 1.39-2.126 2.126-2.132-5.888-6.952-9.486-13.167-9.486-11.122 0-20.69 14.23-21.344 24.207-.409 5.888 1.636 12.43 7.851 14.311a10.8 10.8 0 0 0 3.189.491c9.077 0 17.174-11.122 22.489-17.01 2.617-2.862 5.152-6.133 8.1-8.832a80.813 80.813 0 0 1-1.8 11.694c-17.092 8.587-37.128 21.181-47.6 37.128-5.805 8.995-10.55 25.106 1.228 31.648zm.164-17.092c5.07-17.991 24.861-34.02 44.733-45.142-.082.245-.082.491-.164.736-3.925 17.174-16.765 56.918-38.6 56.918-2.617 0-5.561-.491-6.542-3.271s-.245-6.542.572-9.241zm13.248-52.093c1.636-6.788 9-17.828 16.765-17.828 3.68 0 5.07 2.208 5.725 5.888a4.127 4.127 0 0 0 .818 1.717c-2.208 2.453-4.5 4.989-6.788 7.442-3.435 3.68-8.423 9.9-13.739 10.631-.245 0-.491.082-.654.082-3.681 0-2.7-5.233-2.127-7.932zm34.756-16.6zM188.78 34.7a11.625 11.625 0 0 0 10.141 6.052c6.869 0 12.676-5.888 16.029-11.367a20.965 20.965 0 0 0 5.07.572 26.762 26.762 0 0 0 21.1-11.04c1.717-2.29 1.881-6.052.818-6.052-.245 0-.572.245-.981.818-4.253 5.725-13.248 9.977-21.263 9.977a11.518 11.518 0 0 1-1.636-.082c2.617-5.97 4.661-13.085 3.6-19.709-.981-5.643-4.907-10.795-11.04-10.795-4.171.082-7.033 3.108-8.669 6.624a3.889 3.889 0 0 0-1.881-.572 1.8 1.8 0 0 0-.654.082C186.49 2.564 182.892 24.562 188.78 34.7zm4.743-15.783c.981-4.171 2.944-9 6.461-11.694a22.324 22.324 0 0 0 3.517 13.9 20.277 20.277 0 0 0 4.58 4.907c-2.535 3.353-7.278 8.26-11.613 8.26a3.1 3.1 0 0 1-1.881-.491c-3.517-2.367-1.8-11.69-1.064-14.88zm16.683-17.825a4.716 4.716 0 0 1 2.862-1.472c4.007 0 .9 14.23 0 16.683-.654 1.717-1.39 3.353-2.208 5.07-5.97-4.173-5.97-15.702-.654-20.281z" class="cls-3" transform="translate(220.061 291.849)"/>
        </g>
    </g>
</svg>
