<svg xmlns="http://www.w3.org/2000/svg" width="1874.261" height="1278.192" viewBox="0 0 1874.261 1278.192">
    <path fill="#00d784" d="M228.192 1045.4a227.174 227.174 0 0 0 102.418-24.432c136.649-68.859 263.947-152.575 387.035-233.6 259.03-170.416 503.687-331.393 800.123-331.393 125.9 0 227.99-102.09 227.99-227.991C1745.758 102.073 1643.668 0 1517.769 0 1084.752 0 756.552 215.913 467.018 406.429c-117.464 77.3-228.422 150.3-341.572 207.3C13 670.375-32.218 807.473 24.427 919.933A227.926 227.926 0 0 0 228.192 1045.4" transform="translate(145.492 0) rotate(8)"/>
</svg>
