<svg xmlns="http://www.w3.org/2000/svg" width="146.522" height="63.534" viewBox="0 0 146.522 63.534">
    <defs>
        <style>
            .cls-1{fill:#fff}.cls-2{fill:#02d886}.cls-3{fill:#01d886}.cls-4{fill:#00d785}
        </style>
    </defs>
    <g id="Grupo_686" transform="translate(-1980.182 3303.597)">
        <g id="Grupo_660" transform="translate(1980.182 -3299.222)">
            <path id="Trazado_401" d="M156.691 63.866a4.72 4.72 0 0 1 .807-1.625 3.568 3.568 0 0 1 3.865-1.22 3.732 3.732 0 0 1 2.609 3.241c.021.309.033.621.033.933v26.448a3.753 3.753 0 0 1-2.51 3.721 3.668 3.668 0 0 1-4.69-2.423c-.117-.342-.2-.294-.438-.132a15.194 15.194 0 0 1-9.491 2.735 15.918 15.918 0 0 1-13.92-8.9 18.255 18.255 0 0 1 1.265-18.828 16.128 16.128 0 0 1 9.865-6.579 15.462 15.462 0 0 1 12.282 2.453c.081.054.159.108.24.159.02.008.044.008.083.017zM138.433 78.3a9.437 9.437 0 0 0 .012 1.4 11.021 11.021 0 0 0 1.49 4.3 8.444 8.444 0 0 0 4.105 3.475 9.02 9.02 0 0 0 4.624.564 8.417 8.417 0 0 0 5.224-2.615 10.381 10.381 0 0 0 2.57-9.047 9.742 9.742 0 0 0-2.618-5.311 8.58 8.58 0 0 0-2.786-1.991 8.939 8.939 0 0 0-5.323-.6 8.388 8.388 0 0 0-5.209 3.25 10.013 10.013 0 0 0-2.089 6.575z" class="cls-1" transform="translate(-91.665 -46.996)"/>
            <path id="Trazado_402" d="M345.414 95.777a15.678 15.678 0 0 1-10.489-4.645 16.721 16.721 0 0 1-5.152-9.713 17.51 17.51 0 0 1 3.712-14.279 15.816 15.816 0 0 1 9.88-5.988 15.049 15.049 0 0 1 13.359 3.868 17.271 17.271 0 0 1 5.409 8.8c1.3 5.535.51 10.714-3.035 15.284a16.676 16.676 0 0 1-7.359 5.673 17.23 17.23 0 0 1-6.325 1zm.765-7.562a13.006 13.006 0 0 0 1.364-.078 8.419 8.419 0 0 0 6.6-4.63 11.178 11.178 0 0 0 .96-7.6 8.709 8.709 0 0 0-3.209-5.436 8.906 8.906 0 0 0-7.94-1.736 8.11 8.11 0 0 0-5.874 4.711 12.293 12.293 0 0 0-.123 9.494 7.534 7.534 0 0 0 1.73 2.786 9.062 9.062 0 0 0 6.492 2.489z" class="cls-1" transform="translate(-230.701 -47.011)"/>
            <path id="Trazado_403" d="M260.127 46.137v-9.416c0-.594 0-.582-.612-.6a12.361 12.361 0 0 1-2.258-.081 3.848 3.848 0 0 1-2.951-4.081 3.756 3.756 0 0 1 3.7-3.463c.564 0 1.127-.021 1.688.009.339.018.438-.063.438-.42-.015-3.2-.009-6.4-.009-9.593a3.829 3.829 0 0 1 3.484-3.853 3.773 3.773 0 0 1 4.162 3.041 4.3 4.3 0 0 1 .075.855q.009 4.795 0 9.593c0 .3.075.375.375.378a9.051 9.051 0 0 1 2.4.126 3.818 3.818 0 0 1 2.807 4.27 3.912 3.912 0 0 1-3.808 3.227c-.5 0-1.008.006-1.511 0-.183 0-.27.054-.252.246.009.1 0 .192 0 .288v18.215c0 .561 0 .561.543.636a3.882 3.882 0 0 1 1.3 7.218 4.46 4.46 0 0 1-2.867.39 7.717 7.717 0 0 1-6.531-6.036 6.768 6.768 0 0 1-.171-1.493q-.005-4.733-.002-9.456z" class="cls-1" transform="translate(-178.036 -14.622)"/>
            <path id="Trazado_404" d="M5.836 46.237c0-3.233-.006-6.468.006-9.7 0-.312-.066-.4-.39-.4a12.266 12.266 0 0 1-2.438-.066 3.808 3.808 0 0 1-3-4.168 3.752 3.752 0 0 1 3.739-3.382c.564 0 1.127-.024 1.688.009.351.021.4-.111.4-.42q-.013-4.831-.006-9.665a3.8 3.8 0 0 1 3.826-3.8 3.734 3.734 0 0 1 3.877 3.76c.012 3.2 0 6.4 0 9.593 0 .519 0 .507.54.522a9.011 9.011 0 0 1 2.216.129 3.836 3.836 0 0 1 2.837 4.225 3.922 3.922 0 0 1-3.805 3.274c-.492 0-.984.015-1.475-.006-.261-.012-.348.084-.312.327a1.2 1.2 0 0 1 0 .18q0 9.162-.009 18.322c0 .381.075.519.48.561a3.752 3.752 0 0 1 3.3 3.17 3.822 3.822 0 0 1-1.946 4.06 4.8 4.8 0 0 1-3.328.291 7.721 7.721 0 0 1-6.186-6.9c-.015-.168-.015-.336-.015-.5l.001-9.416z" class="cls-1" transform="translate(0.003 -14.642)"/>
            <path id="Trazado_405" d="M75.318 65.136a13.027 13.027 0 0 1 6.273-3.547 12.642 12.642 0 0 1 4.264-.471 3.589 3.589 0 0 1 3.331 3.325 3.722 3.722 0 0 1-2.834 3.857 18.852 18.852 0 0 1-1.928.162 7.581 7.581 0 0 0-4.381 2.288 18.718 18.718 0 0 0-4.237 6.717 7.243 7.243 0 0 0-.507 2.753c.033 3.9.015 7.808.012 11.713a3.752 3.752 0 0 1-3.289 3.745 3.688 3.688 0 0 1-4.15-2.927 4.09 4.09 0 0 1-.072-.851V64.844a3.629 3.629 0 0 1 3.634-3.733 3.7 3.7 0 0 1 3.877 3.739c.007.07.007.142.007.286z" class="cls-1" transform="translate(-47.468 -47.16)"/>
        </g>
        <g id="Grupo_661" transform="translate(1992.73 -3248.326)">
            <path id="Trazado_406" d="M100.514 184.358h57.354a1.094 1.094 0 0 1 1.2.759 1.062 1.062 0 0 1-.975 1.394c-.1.006-.192 0-.288 0H43.168c-.753 0-1.148-.252-1.292-.825a1.078 1.078 0 0 1 .96-1.331c.12-.009.24 0 .36 0q28.66.005 57.318.003z" class="cls-2" transform="translate(-41.844 -184.353)"/>
            <path id="Trazado_407" d="M265.037 206.87h-21.251a1.07 1.07 0 0 1-1.133-1.385 1.058 1.058 0 0 1 .978-.768h42.616c.792 0 1.274.456 1.229 1.16a1.059 1.059 0 0 1-1 .993c-.108.006-.216 0-.324 0z" class="cls-3" transform="translate(-182.403 -198.61)"/>
        </g>
        <g id="Grupo_662" transform="translate(2100.134 -3300.043)">
            <path id="Trazado_408" d="M461.162 80.762a2.559 2.559 0 0 1-1.739 1.592c-2.48.981-4.939 2.009-7.407 3.011a1.884 1.884 0 0 1-1.955-3.17 2.234 2.234 0 0 1 .621-.354l7.667-3.134a1.884 1.884 0 0 1 2.759 1.22c.006.018.033.03.051.042.003.265.003.531.003.793z" class="cls-3" transform="translate(-434.592 -58.516)"/>
            <path id="Trazado_409" d="M405.451 13.945c-.135.7-.3 1.55-.462 2.4q-.6 3.063-1.205 6.123a1.9 1.9 0 0 1-3.5.741 1.9 1.9 0 0 1-.225-1.385q.819-4.206 1.655-8.411a1.87 1.87 0 0 1 2.015-1.514 1.9 1.9 0 0 1 1.722 2.046z" class="cls-4" transform="translate(-400.021 -11.883)"/>
            <path id="Trazado_410" d="M426.97 48.823a1.94 1.94 0 0 1 .561-1.46q2.879-2.91 5.742-5.832a2.32 2.32 0 0 1 1.376-.837 1.879 1.879 0 0 1 1.6 3.191c-.954.978-1.913 1.946-2.87 2.918-1.068 1.083-2.132 2.168-3.206 3.242a1.829 1.829 0 0 1-2.057.387 1.8 1.8 0 0 1-1.146-1.609z" class="cls-4" transform="translate(-418.889 -32.044)"/>
        </g>
        <g id="Grupo_663" transform="translate(2000.54 -3303.597)">
            <path id="Trazado_411" d="M77.51 7.337c.285.1.543.186.792.294a3.429 3.429 0 0 1 2.2 3.241c.1 2.327-1.277 3.559-3.34 4.03a9.644 9.644 0 0 1-2.138.225q-3.4-.009-6.795.006c-.267 0-.336-.063-.336-.333q.014-7.219 0-14.438c0-.27.069-.336.336-.333 2.192.012 4.384 0 6.579.012a6.677 6.677 0 0 1 2.759.567 3.36 3.36 0 0 1 2.133 3.02A3.5 3.5 0 0 1 77.794 7.2a2.723 2.723 0 0 0-.284.137zm-4.765.813c-1.106 0-2.03.006-2.951-.006-.228 0-.309.051-.306.294q.018 2.532 0 5.062c0 .252.066.324.321.321 1.616-.012 3.233.009 4.849-.012a7.019 7.019 0 0 0 2.642-.4 2.664 2.664 0 0 0 .813-4.363 3.716 3.716 0 0 0-2.18-.822c-1.122-.137-2.25-.047-3.188-.074zm-.486-1.307c.636 0 1.268.009 1.9 0a5.8 5.8 0 0 0 2.585-.492 2.566 2.566 0 0 0 .5-4.2 3.6 3.6 0 0 0-2.085-.751c-1.808-.138-3.619-.033-5.424-.069-.234-.006-.243.111-.243.288 0 1.652.006 3.3 0 4.954 0 .228.078.279.291.279.817-.015 1.648-.009 2.476-.009z" class="cls-3" transform="translate(-67.89 -0.03)"/>
            <path id="Trazado_412" d="M171.966 18.605c-1.463 0-2.924.006-4.387-.006-.273 0-.336.051-.291.339a4.177 4.177 0 0 0 4.153 3.559 4.58 4.58 0 0 0 3.589-1.331c.108-.111.18-.126.279 0 .117.15.249.291.375.435.4.462.4.465-.069.876a6.005 6.005 0 0 1-4.726 1.349 5.7 5.7 0 0 1-3.3-1.358 5.36 5.36 0 0 1-1.856-3.8 5.715 5.715 0 0 1 1.292-4.354 5.407 5.407 0 0 1 5.7-1.7 5.032 5.032 0 0 1 3.862 4.057 7.1 7.1 0 0 1 .153 1.532c.006.3-.063.411-.393.4-1.455-.01-2.918.002-4.381.002zm-.732-1.139h3.625c.438 0 .438 0 .357-.438a4.023 4.023 0 0 0-7.925.1c-.051.324.054.342.315.342 1.211-.01 2.42-.004 3.628-.004z" class="cls-2" transform="translate(-136.381 -8.701)"/>
            <path id="Trazado_413" d="M214.131 14.537a5.405 5.405 0 0 1 6.111-1.811 3.984 3.984 0 0 1 2.723 3.313 5.966 5.966 0 0 1 .087 1.178c0 2.084-.006 4.168 0 6.252 0 .255-.042.369-.327.342a5.266 5.266 0 0 0-.9 0c-.267.021-.309-.087-.306-.324q.009-3.162-.009-6.324a4.262 4.262 0 0 0-.162-1.1 2.875 2.875 0 0 0-2.591-2.192 4.57 4.57 0 0 0-2.462.324 3.546 3.546 0 0 0-2.084 3.415c-.048 1.94-.024 3.88-.015 5.82 0 .288-.051.414-.366.375-.378-.045-.885.156-1.1-.081-.189-.2-.063-.7-.063-1.074 0-3.256 0-6.516-.009-9.772 0-.3.078-.4.375-.369a3.509 3.509 0 0 0 .753 0c.3-.033.354.1.345.363-.012.528 0 1.056 0 1.665z" class="cls-3" transform="translate(-169.23 -8.716)"/>
            <path id="Trazado_414" d="M129.51 21.9a8.072 8.072 0 0 1-.738.867 5.031 5.031 0 0 1-4.147 1.172 4.842 4.842 0 0 1-1.388-.348 4.06 4.06 0 0 1-2.489-3.349 6.854 6.854 0 0 1-.075-1.109c0-2.06.006-4.12 0-6.18 0-.261.054-.369.33-.336.39.045.912-.165 1.133.081.192.216.06.729.063 1.109v4.96a5.735 5.735 0 0 0 .213 1.7 2.756 2.756 0 0 0 2.006 1.967 4.429 4.429 0 0 0 2.618-.072 3.568 3.568 0 0 0 2.393-3.565c.039-1.94.024-3.88.012-5.82 0-.306.081-.393.378-.366a5.19 5.19 0 0 0 .864 0c.243-.018.3.072.3.3-.012.957-.006 1.916-.006 2.876 0 2.588 0 5.176.006 7.76 0 .273-.057.384-.351.357-.357-.033-.834.114-1.041-.066-.237-.207-.06-.7-.075-1.062-.016-.263-.006-.533-.006-.876z" class="cls-3" transform="translate(-104.843 -8.812)"/>
        </g>
        <path id="Trazado_415" d="M363.8 105.828a9.087 9.087 0 0 1-6.5-2.489 7.549 7.549 0 0 1-1.73-2.786 12.293 12.293 0 0 1 .123-9.494 8.11 8.11 0 0 1 5.874-4.711 8.9 8.9 0 0 1 7.94 1.736 8.709 8.709 0 0 1 3.209 5.436 11.18 11.18 0 0 1-.96 7.6 8.414 8.414 0 0 1-6.6 4.63 12.146 12.146 0 0 1-1.356.078z" class="cls-4" transform="translate(1731.856 -3363.846)"/>
    </g>
</svg>
