<svg xmlns="http://www.w3.org/2000/svg" width="20.864" height="24.908" viewBox="0 0 20.864 24.908">
    <defs>
        <style>
            .cls-1{fill:#fff}
        </style>
    </defs>
    <g id="salida-de-emergencia" transform="translate(-37.06)">
        <path id="Trazado_196" d="M177.673 153.026a.733.733 0 0 1-.518-1.251l2.625-2.625h-10.454a.733.733 0 0 1 0-1.465h10.411l-2.586-2.629a.733.733 0 0 1 1.04-1.032l3.876 3.876a.733.733 0 0 1 0 1.036l-3.876 3.876a.731.731 0 0 1-.518.214z" class="cls-1" transform="translate(-124.357 -135.964)"/>
        <path id="Trazado_197" d="M52.029 24.908H37.793a.733.733 0 0 1-.733-.733V.733A.733.733 0 0 1 37.793 0h14.236a.733.733 0 0 1 .733.733v4.29a.733.733 0 0 1-1.465 0V1.465H38.525v21.978H51.3v-3.558a.733.733 0 0 1 1.465 0v4.29a.733.733 0 0 1-.736.733z" class="cls-1"/>
    </g>
</svg>
