<svg xmlns="http://www.w3.org/2000/svg" width="32.406" height="30.547" viewBox="0 0 32.406 30.547">
    <g>
        <g>
            <g>
                <path fill="#00d784" d="M277.875 86.806h-4.646a.871.871 0 0 0-.725.388l-1.972 2.958a12.88 12.88 0 0 0-7.525-2.416.871.871 0 0 0-.871.871v12.08a.871.871 0 0 0 .871.871h12.08a.871.871 0 0 0 .871-.871 12.916 12.916 0 0 0-4.074-9.421l1.811-2.716h4.18a.871.871 0 1 0 0-1.742zm-3.692 13.009h-10.3v-10.3a11.143 11.143 0 0 1 5.686 2.092l-.777 1.166a.871.871 0 1 0 1.45.966l.665-1a11.179 11.179 0 0 1 3.276 7.076z" transform="translate(-41.797 -441.226) translate(57.594 441.226) translate(0 0) translate(-262.137 -86.806)"/>
            </g>
        </g>
        <g>
            <g>
                <path fill="#00b7ff" d="M156.965 151.172h-7.88l-1.388-2.221a12.906 12.906 0 0 0 3.635-8.987.871.871 0 0 0-.871-.871h-11.209v-11.209a.871.871 0 0 0-.871-.871 12.951 12.951 0 1 0 8 23.126l1.479 2.366a.871.871 0 0 0 .739.409h8.363a.871.871 0 0 0 0-1.742zm-12.27-7.024a.871.871 0 0 0-1.478.923l2.238 3.58a11.206 11.206 0 1 1-7.945-19.862v11.175a.871.871 0 0 0 .871.871h11.175a11.165 11.165 0 0 1-2.815 6.587z" transform="translate(-41.797 -441.226) translate(41.797 445.872) translate(0 0) translate(-125.43 -127.013)"/>
            </g>
        </g>
    </g>
</svg>
