<svg xmlns="http://www.w3.org/2000/svg" id="feliz" width="146" height="146" viewBox="0 0 146 146">
    <defs>
        <style>
            .cls-1{fill:#00b7ff}
        </style>
    </defs>
    <g id="Grupo_434">
        <g id="Grupo_433">
            <path id="Trazado_313" d="M73 0a73 73 0 1 0 73 73A73.008 73.008 0 0 0 73 0zm0 139.733A66.733 66.733 0 1 1 139.733 73 66.755 66.755 0 0 1 73 139.733z" class="cls-1"/>
        </g>
    </g>
    <g id="Grupo_436" transform="translate(27.759 42.174)">
        <g id="Grupo_435">
            <path id="Trazado_314" d="M98.095 112.811A16.678 16.678 0 0 0 81.835 99.6a16.375 16.375 0 0 0-16.26 13.55 3.376 3.376 0 0 0 2.541 3.726h.508a3.082 3.082 0 0 0 3.049-2.541A10.351 10.351 0 0 1 92 114.166a3.123 3.123 0 1 0 6.1-1.355z" class="cls-1" transform="translate(-65.557 -99.6)"/>
        </g>
    </g>
    <g id="Grupo_438" transform="translate(84.838 42.174)">
        <g id="Grupo_437">
            <path id="Trazado_315" d="M232.895 112.811a16.678 16.678 0 0 0-16.26-13.211 16.375 16.375 0 0 0-16.26 13.55 3.376 3.376 0 0 0 2.541 3.726h.508a3.082 3.082 0 0 0 3.049-2.541 10.351 10.351 0 0 1 20.325-.169 3.123 3.123 0 1 0 6.1-1.355z" class="cls-1" transform="translate(-200.357 -99.6)"/>
        </g>
    </g>
    <g id="Grupo_440" transform="translate(26.304 79.318)">
        <g id="Grupo_439">
            <path id="Trazado_316" fill="#00d784" d="M152.515 187.439a3.667 3.667 0 0 0-4.4 2.541c-3.726 13.889-20.325 24.051-39.464 24.051S72.91 203.869 69.184 189.98a3.595 3.595 0 0 0-6.944 1.863c4.573 16.937 24.051 29.3 46.239 29.3 22.357 0 41.835-12.364 46.239-29.3a3.235 3.235 0 0 0-2.203-4.404z" transform="translate(-62.121 -187.321)"/>
        </g>
    </g>
</svg>
