<svg xmlns="http://www.w3.org/2000/svg" xmlns:xlink="http://www.w3.org/1999/xlink" width="125.522" height="28.66" viewBox="0 0 125.522 28.66">
  <defs>
    <clipPath id="clip-path">
      <rect id="Rectángulo_13" data-name="Rectángulo 13" width="125.522" height="28.66" fill="none"/>
    </clipPath>
  </defs>
  <g id="Grupo_9" data-name="Grupo 9" transform="translate(0 0)">
    <g id="Grupo_8" data-name="Grupo 8" transform="translate(0 0)" clip-path="url(#clip-path)">
      <path id="Trazado_40" data-name="Trazado 40" d="M318.566,23.584a6.053,6.053,0,1,0,6.053,6.053,6.053,6.053,0,0,0-6.053-6.053" transform="translate(-199.096 -15.025)" fill="#00b7ff"/>
      <path id="Trazado_41" data-name="Trazado 41" d="M301.01,15.375a1.518,1.518,0,1,0,1.518,1.518,1.518,1.518,0,0,0-1.518-1.518" transform="translate(-190.801 -9.795)" fill="#00d986"/>
      <path id="Trazado_42" data-name="Trazado 42" d="M157.24,15.375a1.518,1.518,0,1,0,1.518,1.518,1.518,1.518,0,0,0-1.518-1.518" transform="translate(-99.207 -9.795)" fill="#00b7ff"/>
      <path id="Trazado_43" data-name="Trazado 43" d="M42.063,20.654a1.518,1.518,0,1,0,1.518,1.518,1.518,1.518,0,0,0-1.518-1.518" transform="translate(-25.83 -13.158)" fill="#00b7ff"/>
      <path id="Trazado_44" data-name="Trazado 44" d="M125.37,69.712a1.913,1.913,0,0,1-.588.344,1.973,1.973,0,0,1-.691.123,1.932,1.932,0,0,1-.958-.245,1.885,1.885,0,0,1-.7-.661,1.7,1.7,0,0,1,0-1.79,1.892,1.892,0,0,1,.7-.662,1.943,1.943,0,0,1,.958-.245,2.042,2.042,0,0,1,.7.12,1.817,1.817,0,0,1,.492.269l.426,0-.068-.408a2.563,2.563,0,0,0-.662-.367,2.558,2.558,0,0,0-2.114.155,2.427,2.427,0,0,0-.9.855,2.236,2.236,0,0,0,0,2.357,2.494,2.494,0,0,0,2.126,1.171,2.53,2.53,0,0,0,.889-.159,2.493,2.493,0,0,0,.76-.45l.185-.161-.412-.37Z" transform="translate(-77.488 -42.066)" fill="#fff"/>
      <path id="Trazado_45" data-name="Trazado 45" d="M137.362,66.1l-2.207,4.655h.63l.606-1.287h2.377l.613,1.287h.625L137.772,66.1Zm-.71,2.815.917-1.953.931,1.953Z" transform="translate(-86.105 -42.108)" fill="#fff"/>
      <path id="Trazado_46" data-name="Trazado 46" d="M154.11,69.355l-1.778-3.26h-.564V70.75h.558V67.275l1.644,3.01h.27l1.639-3.01.005,3.475h.558V66.1h-.564Z" transform="translate(-96.689 -42.108)" fill="#fff"/>
      <path id="Trazado_47" data-name="Trazado 47" d="M173.365,68.3a1.071,1.071,0,0,0,.154-.144,1.171,1.171,0,0,0,.279-.8,1.133,1.133,0,0,0-.433-.94h0a1.771,1.771,0,0,0-1.116-.321h-1.974V70.75h1.974a2.161,2.161,0,0,0,1.281-.337,1.274,1.274,0,0,0,.146-1.892,1.29,1.29,0,0,0-.311-.222m-2.532-1.65h1.415a1.245,1.245,0,0,1,.76.2.592.592,0,0,1,.23.511.6.6,0,0,1-.23.517,1.245,1.245,0,0,1-.76.2h-1.415Zm2.358,3.321h0a1.645,1.645,0,0,1-.942.226h-1.415V68.617h1.415a1.673,1.673,0,0,1,.944.222.624.624,0,0,1,.284.559.644.644,0,0,1-.286.572" transform="translate(-108.479 -42.107)" fill="#fff"/>
      <path id="Trazado_48" data-name="Trazado 48" d="M192.279,66.1l-2.207,4.655h.63l.607-1.287h2.377l.613,1.287h.625L192.69,66.1Zm-.71,2.815.917-1.953.931,1.953Z" transform="translate(-121.091 -42.108)" fill="#fff"/>
      <path id="Trazado_49" data-name="Trazado 49" d="M216.739,69.6a2.241,2.241,0,0,1-.715.451,1.972,1.972,0,0,1-.69.122,1.94,1.94,0,0,1-.958-.244,1.889,1.889,0,0,1-.7-.662,1.7,1.7,0,0,1,0-1.79,1.9,1.9,0,0,1,.7-.662,1.945,1.945,0,0,1,.958-.245,2.041,2.041,0,0,1,.7.12,2.2,2.2,0,0,1,.525.3.267.267,0,0,0,.346-.022l.006-.005a.269.269,0,0,0-.025-.41,3.012,3.012,0,0,0-.665-.367,2.553,2.553,0,0,0-2.114.155,2.425,2.425,0,0,0-.9.855,2.238,2.238,0,0,0,0,2.357,2.5,2.5,0,0,0,2.126,1.172,2.53,2.53,0,0,0,.889-.159,2.81,2.81,0,0,0,.905-.569c-.009-.02-.316-.315-.389-.394" transform="translate(-135.617 -42.065)" fill="#fff"/>
      <path id="Trazado_50" data-name="Trazado 50" d="M230.776,66.341h0a2.556,2.556,0,0,0-2.456,0,2.439,2.439,0,0,0-.9.851,2.234,2.234,0,0,0,0,2.357,2.447,2.447,0,0,0,.9.858,2.506,2.506,0,0,0,3.355-.858,2.234,2.234,0,0,0,0-2.357,2.438,2.438,0,0,0-.9-.851m.421,2.924a1.892,1.892,0,0,1-.7.661,1.973,1.973,0,0,1-1.9,0,1.877,1.877,0,0,1-.7-.661,1.654,1.654,0,0,1-.255-.895,1.631,1.631,0,0,1,.254-.885,1.9,1.9,0,0,1,.7-.659,1.975,1.975,0,0,1,1.9,0,1.9,1.9,0,0,1,.7.659,1.631,1.631,0,0,1,.255.885,1.66,1.66,0,0,1-.255.895" transform="translate(-144.673 -42.065)" fill="#fff"/>
      <path id="Trazado_51" data-name="Trazado 51" d="M248.552,66.1h-.125a.216.216,0,0,0-.216.217v3.453l-2.693-3.583a.218.218,0,0,0-.173-.086h-.187a.216.216,0,0,0-.217.217v4.222a.216.216,0,0,0,.217.217h.125a.216.216,0,0,0,.217-.217V67.081l2.693,3.583a.217.217,0,0,0,.173.086h.188a.216.216,0,0,0,.217-.217V66.312a.217.217,0,0,0-.217-.217" transform="translate(-156.047 -42.108)" fill="#fff"/>
      <path id="Trazado_52" data-name="Trazado 52" d="M262.482,66.1h-3.127a.217.217,0,0,0-.217.217v.121a.217.217,0,0,0,.217.216h1.284v3.885a.216.216,0,0,0,.217.217h.125a.216.216,0,0,0,.217-.217V66.649h1.284a.216.216,0,0,0,.217-.216v-.121a.217.217,0,0,0-.217-.217" transform="translate(-165.092 -42.108)" fill="#fff"/>
      <path id="Trazado_53" data-name="Trazado 53" d="M282.389,68.2h-.125a.217.217,0,0,0-.217.217V69.8a1.874,1.874,0,0,1-.494.263,2,2,0,0,1-.671.114,1.937,1.937,0,0,1-1.655-.912,1.69,1.69,0,0,1,0-1.786,1.9,1.9,0,0,1,.7-.659,1.942,1.942,0,0,1,.958-.244,2.033,2.033,0,0,1,.7.12,1.794,1.794,0,0,1,.578.339.217.217,0,0,0,.294-.007l.081-.078a.213.213,0,0,0,.066-.163.217.217,0,0,0-.076-.159,2.558,2.558,0,0,0-.755-.442,2.552,2.552,0,0,0-2.114.155,2.431,2.431,0,0,0-.9.851,2.235,2.235,0,0,0,0,2.357,2.448,2.448,0,0,0,.9.858,2.477,2.477,0,0,0,1.229.318,2.531,2.531,0,0,0,.889-.158,2.5,2.5,0,0,0,.76-.45.217.217,0,0,0,.074-.164V68.419a.217.217,0,0,0-.217-.217" transform="translate(-177.376 -42.065)" fill="#fff"/>
      <path id="Trazado_54" data-name="Trazado 54" d="M298.516,67.193a2.441,2.441,0,0,0-.9-.851,2.556,2.556,0,0,0-2.456,0,2.441,2.441,0,0,0-.9.851,2.236,2.236,0,0,0,0,2.357,2.447,2.447,0,0,0,.9.858,2.536,2.536,0,0,0,2.458,0,2.446,2.446,0,0,0,.9-.858,2.237,2.237,0,0,0,0-2.357m-.478,2.072a1.886,1.886,0,0,1-.7.661,1.973,1.973,0,0,1-1.9,0,1.882,1.882,0,0,1-.7-.661,1.657,1.657,0,0,1-.255-.895,1.628,1.628,0,0,1,.255-.885,1.9,1.9,0,0,1,.7-.659,1.975,1.975,0,0,1,1.9,0,1.9,1.9,0,0,1,.7.659,1.628,1.628,0,0,1,.255.885,1.654,1.654,0,0,1-.255.895" transform="translate(-187.257 -42.065)" fill="#fff"/>
      <path id="Trazado_55" data-name="Trazado 55" d="M272.879,68.666h-.008a.275.275,0,0,0-.275.275v3.174a.275.275,0,0,0,.275.275h.008a.276.276,0,0,0,.275-.275V68.941a.275.275,0,0,0-.275-.275" transform="translate(-173.666 -43.746)" fill="#fff"/>
      <path id="Trazado_56" data-name="Trazado 56" d="M272.8,65.956a.325.325,0,1,0,.325.325.325.325,0,0,0-.325-.325" transform="translate(-173.587 -42.019)" fill="#00d986"/>
      <path id="Trazado_57" data-name="Trazado 57" d="M57.029,20.678a1.514,1.514,0,0,0-1.539,1.539V33.987h3.036V22.217a1.514,1.514,0,0,0-.43-1.093,1.435,1.435,0,0,0-1.066-.446" transform="translate(-35.352 -13.174)" fill="#fff"/>
      <path id="Trazado_58" data-name="Trazado 58" d="M71.678,20.678a1.514,1.514,0,0,0-1.539,1.539V33.987h3.036V22.217a1.514,1.514,0,0,0-.43-1.093,1.435,1.435,0,0,0-1.066-.446" transform="translate(-44.684 -13.174)" fill="#fff"/>
      <path id="Trazado_59" data-name="Trazado 59" d="M42.064,31.92a1.459,1.459,0,0,0-1.088.446,1.512,1.512,0,0,0-.43,1.093v7.69h3.035v-7.69a1.514,1.514,0,0,0-.43-1.093,1.459,1.459,0,0,0-1.088-.446" transform="translate(-25.831 -20.336)" fill="#fff"/>
      <path id="Trazado_60" data-name="Trazado 60" d="M94.226,23.072a1.459,1.459,0,0,0-1.088.446,1.509,1.509,0,0,0-.248.337c-.042-.023-.084-.046-.128-.068a6.714,6.714,0,0,0-3.027-.591,5.844,5.844,0,0,0-3.019.79,5.509,5.509,0,0,0-2.082,2.192,6.7,6.7,0,0,0-.742,3.18A6.867,6.867,0,0,0,84.6,32.48,5.422,5.422,0,0,0,89.557,35.5a8.443,8.443,0,0,0,1.747-.185,1.3,1.3,0,0,0,.949-1.3,1.372,1.372,0,0,0-1.369-1.386c-.125,0-.566.053-1.007.053a2.616,2.616,0,0,1-2.094-.936,3.432,3.432,0,0,1-.854-2.385,3.471,3.471,0,0,1,.843-2.427,2.966,2.966,0,0,1,2.326-.913,3.165,3.165,0,0,1,.623.08,8.554,8.554,0,0,1,1.983.807l-.013,6.922a1.515,1.515,0,0,0,.43,1.093,1.551,1.551,0,0,0,2.175,0,1.514,1.514,0,0,0,.43-1.093l.017-9.216a1.513,1.513,0,0,0-.43-1.093,1.458,1.458,0,0,0-1.088-.446" transform="translate(-53.447 -14.699)" fill="#fff"/>
      <path id="Trazado_61" data-name="Trazado 61" d="M157.241,26.641a1.459,1.459,0,0,0-1.088.446,1.512,1.512,0,0,0-.43,1.093v9.605h3.035V28.18a1.514,1.514,0,0,0-.43-1.093,1.459,1.459,0,0,0-1.088-.446" transform="translate(-99.208 -16.972)" fill="#fff"/>
      <path id="Trazado_62" data-name="Trazado 62" d="M302.064,27.086a1.55,1.55,0,0,0-2.175,0,1.515,1.515,0,0,0-.43,1.094v9.605h3.035V28.18a1.516,1.516,0,0,0-.43-1.094" transform="translate(-190.78 -16.972)" fill="#fff"/>
      <path id="Trazado_63" data-name="Trazado 63" d="M10.823,0h0A1.485,1.485,0,0,0,9.338,1.487l.024,14.627-6.624-8.9a1.485,1.485,0,0,0-2.5,1.595l8.51,11.861h3.6l-.03-19.19A1.485,1.485,0,0,0,10.823,0" transform="translate(0 0)" fill="#fff"/>
      <path id="Trazado_64" data-name="Trazado 64" d="M277.629,32.5a1.314,1.314,0,0,0-1.019-.419,1.393,1.393,0,0,0-.566.106,2.733,2.733,0,0,0-.457.269,2.6,2.6,0,0,1-.319.2,3.43,3.43,0,0,1-1.448.23,2.768,2.768,0,0,1-2.166-.933l-.021-.026a3.436,3.436,0,0,1-.833-2.359,3.472,3.472,0,0,1,.842-2.427,2.968,2.968,0,0,1,2.327-.913,3.341,3.341,0,0,1,.623.08,2.506,2.506,0,0,1,.565.169,2.774,2.774,0,0,1,.357.242,2.236,2.236,0,0,0,.466.286,1.573,1.573,0,0,0,.652.117,1.113,1.113,0,0,0,.913-.442,1.529,1.529,0,0,0,.328-.968A1.92,1.92,0,0,0,276.634,24a6.713,6.713,0,0,0-3.027-.591,6.307,6.307,0,0,0-1.569.192,5.514,5.514,0,0,0-3.532,2.79,6.7,6.7,0,0,0-.742,3.18,6.861,6.861,0,0,0,.708,3.122,5.412,5.412,0,0,0,2.016,2.216,5.659,5.659,0,0,0,3.012.8,8.2,8.2,0,0,0,2.151-.275,4.911,4.911,0,0,0,1.657-.753A1.463,1.463,0,0,0,278,33.539c0-.056,0-.11-.007-.163a1.442,1.442,0,0,0-.364-.871" transform="translate(-170.587 -14.917)" fill="#fff"/>
      <path id="Trazado_65" data-name="Trazado 65" d="M177.846,24.594a4.93,4.93,0,0,0-1.657-.746,8.3,8.3,0,0,0-2.151-.272,5.7,5.7,0,0,0-3.012.8,5.382,5.382,0,0,0-2.017,2.195,6.745,6.745,0,0,0-.707,3.092,6.585,6.585,0,0,0,.742,3.15,5.48,5.48,0,0,0,2.081,2.171,5.564,5.564,0,0,0,1.451.592,6.341,6.341,0,0,0,1.569.191,6.765,6.765,0,0,0,3.028-.586,1.9,1.9,0,0,0,1.238-1.7,1.5,1.5,0,0,0-.328-.96,1.114,1.114,0,0,0-.912-.439,1.59,1.59,0,0,0-.653.116,2.23,2.23,0,0,0-.465.283,2.787,2.787,0,0,1-.358.24,2.517,2.517,0,0,1-.565.168,3.357,3.357,0,0,1-.623.079,2.982,2.982,0,0,1-2.326-.9,3.77,3.77,0,0,1-.01-4.74l.021-.026a2.778,2.778,0,0,1,2.166-.924,3.458,3.458,0,0,1,1.448.228,2.654,2.654,0,0,1,.32.2,2.612,2.612,0,0,0,.457.266,1.4,1.4,0,0,0,.566.1,1.321,1.321,0,0,0,1.019-.415,1.425,1.425,0,0,0,.364-.863c0-.053.007-.107.007-.162a1.444,1.444,0,0,0-.692-1.139" transform="translate(-107.222 -15.02)" fill="#fff"/>
      <path id="Trazado_66" data-name="Trazado 66" d="M131.654,24.42a1.414,1.414,0,0,0-1.012-.4,1.245,1.245,0,0,0-.806.237,1.647,1.647,0,0,0-.549.717l-2.7,6.207-1.851-4.239-.87-1.991a1.561,1.561,0,0,0-.6-.7,1.624,1.624,0,0,0-.872-.249,1.471,1.471,0,0,0-1.062.419,1.3,1.3,0,0,0-.435.949,1.936,1.936,0,0,0,.17.78l3.962,8.776a1.706,1.706,0,0,0,.558.7,1.36,1.36,0,0,0,.811.269h.013l.2-.022a1.42,1.42,0,0,0,.772-.281,1.553,1.553,0,0,0,.512-.668l.158-.347,3.827-8.432a1.864,1.864,0,0,0,.191-.737,1.332,1.332,0,0,0-.413-.992Z" transform="translate(-77.019 -15.291)" fill="#fff"/>
      <path id="Trazado_67" data-name="Trazado 67" d="M204.608,23.414a5.843,5.843,0,0,0-3.019.79,5.507,5.507,0,0,0-2.082,2.192,6.7,6.7,0,0,0-.742,3.18,6.865,6.865,0,0,0,.708,3.122,5.632,5.632,0,0,0,2.112,2.216,6.351,6.351,0,0,0,3.2.8,9.731,9.731,0,0,0,2.342-.274,4.9,4.9,0,0,0,1.658-.753,1.462,1.462,0,0,0,.692-1.151,1.489,1.489,0,0,0-.371-1.034,1.312,1.312,0,0,0-1.019-.42,2.391,2.391,0,0,0-1.023.375,4.44,4.44,0,0,1-1.959.434,3.184,3.184,0,0,1-2.358-.933,3.618,3.618,0,0,1-.857-1.59,3.423,3.423,0,0,1-.093-.8,3.473,3.473,0,0,1,.842-2.427,2.893,2.893,0,0,1,2.134-.909,2.735,2.735,0,0,1,2,.929c.058.064.113.13.165.2a.092.092,0,0,1-.071.148l-2.985.038a1.516,1.516,0,0,0-1.094.43,1.448,1.448,0,0,0,1.094,2.53l4.831.011a1.516,1.516,0,0,0,1.094-.43,1.7,1.7,0,0,0,.436-1.148h0a4.192,4.192,0,0,0-.033-.542,5.67,5.67,0,0,0-5.606-4.989" transform="translate(-126.629 -14.917)" fill="#fff"/>
      <path id="Trazado_68" data-name="Trazado 68" d="M243.983,24.813a3.532,3.532,0,0,0-3.2-1.4A4.14,4.14,0,0,0,238.62,24a5.68,5.68,0,0,0-1.158.9,1.487,1.487,0,0,0-.411-.833,1.551,1.551,0,0,0-2.176,0,1.516,1.516,0,0,0-.43,1.094v8.8a1.512,1.512,0,0,0,.43,1.093,1.551,1.551,0,0,0,2.176,0,1.512,1.512,0,0,0,.43-1.093V28.511a2.641,2.641,0,0,1,.065-.59,2.113,2.113,0,0,1,.569-1.042,2.35,2.35,0,0,1,1.768-.642,1.714,1.714,0,0,1,1.49.573,2.857,2.857,0,0,1,.444,1.7v5.454a1.512,1.512,0,0,0,.43,1.093,1.551,1.551,0,0,0,2.175,0,1.514,1.514,0,0,0,.43-1.093V28.511a6.809,6.809,0,0,0-.87-3.7" transform="translate(-149.36 -14.917)" fill="#fff"/>
      <path id="Trazado_69" data-name="Trazado 69" d="M185.623,68.666h-.008a.275.275,0,0,0-.275.275v3.174a.275.275,0,0,0,.275.275h.008a.275.275,0,0,0,.275-.275V68.941a.275.275,0,0,0-.275-.275" transform="translate(-118.077 -43.746)" fill="#fff"/>
      <path id="Trazado_70" data-name="Trazado 70" d="M185.542,65.956a.325.325,0,1,0,.325.325.325.325,0,0,0-.325-.325" transform="translate(-117.998 -42.019)" fill="#00d986"/>
    </g>
  </g>
</svg>
